<mxfile host="app.diagrams.net" agent="Mozilla/5.0 (Windows NT 10.0; Win64; x64) AppleWebKit/537.36 (KHTML, like Gecko) Chrome/136.0.0.0 Safari/537.36 Edg/136.0.0.0" version="26.3.0">
  <diagram id="R2lEEEUBdFMjLlhIrx00" name="Page-1">
    <mxGraphModel dx="938" dy="516" grid="1" gridSize="10" guides="1" tooltips="1" connect="1" arrows="1" fold="1" page="1" pageScale="1" pageWidth="850" pageHeight="1100" math="0" shadow="0" extFonts="Permanent Marker^https://fonts.googleapis.com/css?family=Permanent+Marker">
      <root>
        <mxCell id="0" />
        <mxCell id="1" parent="0" />
        <mxCell id="C8l6dgH5X2dVMIeymVqH-1" value="Books" style="swimlane;fontStyle=0;childLayout=stackLayout;horizontal=1;startSize=40;horizontalStack=0;resizeParent=1;resizeParentMax=0;resizeLast=0;collapsible=1;marginBottom=0;whiteSpace=wrap;html=1;labelBackgroundColor=none;fillColor=#FAE5C7;strokeColor=#0F8B8D;fontColor=#143642;" parent="1" vertex="1">
          <mxGeometry x="20" y="60" width="230" height="160" as="geometry">
            <mxRectangle x="140" y="100" width="60" height="30" as="alternateBounds" />
          </mxGeometry>
        </mxCell>
        <mxCell id="C8l6dgH5X2dVMIeymVqH-2" value="&lt;b&gt;&lt;u&gt;book_id&amp;nbsp; &amp;nbsp; &amp;nbsp;INT&amp;nbsp; &amp;nbsp; &amp;nbsp;PK&lt;/u&gt;&lt;/b&gt;" style="text;strokeColor=none;fillColor=none;align=left;verticalAlign=middle;spacingLeft=4;spacingRight=4;overflow=hidden;points=[[0,0.5],[1,0.5]];portConstraint=eastwest;rotatable=0;whiteSpace=wrap;html=1;labelBackgroundColor=none;fontColor=#143642;" parent="C8l6dgH5X2dVMIeymVqH-1" vertex="1">
          <mxGeometry y="40" width="230" height="30" as="geometry" />
        </mxCell>
        <mxCell id="C8l6dgH5X2dVMIeymVqH-3" value="Book_name&amp;nbsp; &amp;nbsp; &amp;nbsp; VARCHAR(30)" style="text;strokeColor=none;fillColor=none;align=left;verticalAlign=middle;spacingLeft=4;spacingRight=4;overflow=hidden;points=[[0,0.5],[1,0.5]];portConstraint=eastwest;rotatable=0;whiteSpace=wrap;html=1;labelBackgroundColor=none;fontColor=#143642;shadow=1;" parent="C8l6dgH5X2dVMIeymVqH-1" vertex="1">
          <mxGeometry y="70" width="230" height="30" as="geometry" />
        </mxCell>
        <mxCell id="C8l6dgH5X2dVMIeymVqH-4" value="title&amp;nbsp; &amp;nbsp; &amp;nbsp; &amp;nbsp; &amp;nbsp; &amp;nbsp; &amp;nbsp; &amp;nbsp; &amp;nbsp; &amp;nbsp; VARCHAR(30)" style="text;strokeColor=none;fillColor=none;align=left;verticalAlign=middle;spacingLeft=4;spacingRight=4;overflow=hidden;points=[[0,0.5],[1,0.5]];portConstraint=eastwest;rotatable=0;whiteSpace=wrap;html=1;labelBackgroundColor=none;fontColor=#143642;shadow=1;" parent="C8l6dgH5X2dVMIeymVqH-1" vertex="1">
          <mxGeometry y="100" width="230" height="30" as="geometry" />
        </mxCell>
        <mxCell id="C8l6dgH5X2dVMIeymVqH-5" value="Genre&amp;nbsp; &amp;nbsp; &amp;nbsp; &amp;nbsp; &amp;nbsp; &amp;nbsp; &amp;nbsp; &amp;nbsp; VARCHAR(30)" style="text;strokeColor=none;fillColor=none;align=left;verticalAlign=middle;spacingLeft=4;spacingRight=4;overflow=hidden;points=[[0,0.5],[1,0.5]];portConstraint=eastwest;rotatable=0;whiteSpace=wrap;html=1;labelBackgroundColor=none;fontColor=#143642;" parent="C8l6dgH5X2dVMIeymVqH-1" vertex="1">
          <mxGeometry y="130" width="230" height="30" as="geometry" />
        </mxCell>
        <mxCell id="C8l6dgH5X2dVMIeymVqH-8" value="Authors" style="swimlane;fontStyle=0;childLayout=stackLayout;horizontal=1;startSize=30;horizontalStack=0;resizeParent=1;resizeParentMax=0;resizeLast=0;collapsible=1;marginBottom=0;whiteSpace=wrap;html=1;labelBackgroundColor=none;fillColor=#FAE5C7;strokeColor=#0F8B8D;fontColor=#143642;" parent="1" vertex="1">
          <mxGeometry x="610" y="110" width="230" height="180" as="geometry">
            <mxRectangle x="480" y="80" width="60" height="130" as="alternateBounds" />
          </mxGeometry>
        </mxCell>
        <mxCell id="C8l6dgH5X2dVMIeymVqH-9" value="&lt;b&gt;&lt;u&gt;AuthorID&amp;nbsp; INT&amp;nbsp; &amp;nbsp;PK&amp;nbsp;&amp;nbsp;&lt;/u&gt;&lt;/b&gt;" style="text;strokeColor=none;fillColor=none;align=left;verticalAlign=middle;spacingLeft=4;spacingRight=4;overflow=hidden;points=[[0,0.5],[1,0.5]];portConstraint=eastwest;rotatable=0;whiteSpace=wrap;html=1;labelBackgroundColor=none;fontColor=#143642;" parent="C8l6dgH5X2dVMIeymVqH-8" vertex="1">
          <mxGeometry y="30" width="230" height="30" as="geometry" />
        </mxCell>
        <mxCell id="C8l6dgH5X2dVMIeymVqH-10" value="name&amp;nbsp; &amp;nbsp; &amp;nbsp; &amp;nbsp; &amp;nbsp; &amp;nbsp; &amp;nbsp; &amp;nbsp; &amp;nbsp;VARCHAR(30)" style="text;strokeColor=none;fillColor=none;align=left;verticalAlign=middle;spacingLeft=4;spacingRight=4;overflow=hidden;points=[[0,0.5],[1,0.5]];portConstraint=eastwest;rotatable=0;whiteSpace=wrap;html=1;labelBackgroundColor=none;fontColor=#143642;" parent="C8l6dgH5X2dVMIeymVqH-8" vertex="1">
          <mxGeometry y="60" width="230" height="30" as="geometry" />
        </mxCell>
        <mxCell id="C8l6dgH5X2dVMIeymVqH-11" value="surname&amp;nbsp; &amp;nbsp; &amp;nbsp; &amp;nbsp; &amp;nbsp; &amp;nbsp; &amp;nbsp;VARCHAR(30)" style="text;strokeColor=none;fillColor=none;align=left;verticalAlign=middle;spacingLeft=4;spacingRight=4;overflow=hidden;points=[[0,0.5],[1,0.5]];portConstraint=eastwest;rotatable=0;whiteSpace=wrap;html=1;labelBackgroundColor=none;fontColor=#143642;" parent="C8l6dgH5X2dVMIeymVqH-8" vertex="1">
          <mxGeometry y="90" width="230" height="30" as="geometry" />
        </mxCell>
        <mxCell id="C8l6dgH5X2dVMIeymVqH-12" value="BirthDate&amp;nbsp; &amp;nbsp; &amp;nbsp; &amp;nbsp; &amp;nbsp; &amp;nbsp; DATE" style="text;strokeColor=none;fillColor=none;align=left;verticalAlign=middle;spacingLeft=4;spacingRight=4;overflow=hidden;points=[[0,0.5],[1,0.5]];portConstraint=eastwest;rotatable=0;whiteSpace=wrap;html=1;labelBackgroundColor=none;fontColor=#143642;" parent="C8l6dgH5X2dVMIeymVqH-8" vertex="1">
          <mxGeometry y="120" width="230" height="30" as="geometry" />
        </mxCell>
        <mxCell id="C8l6dgH5X2dVMIeymVqH-13" value="Country&amp;nbsp; &amp;nbsp; &amp;nbsp; &amp;nbsp; &amp;nbsp; &amp;nbsp; &amp;nbsp; VARCHAR(30)" style="text;strokeColor=none;fillColor=none;align=left;verticalAlign=middle;spacingLeft=4;spacingRight=4;overflow=hidden;points=[[0,0.5],[1,0.5]];portConstraint=eastwest;rotatable=0;whiteSpace=wrap;html=1;labelBackgroundColor=none;fontColor=#143642;" parent="C8l6dgH5X2dVMIeymVqH-8" vertex="1">
          <mxGeometry y="150" width="230" height="30" as="geometry" />
        </mxCell>
        <mxCell id="C8l6dgH5X2dVMIeymVqH-89" value="BookAuthors" style="swimlane;fontStyle=0;childLayout=stackLayout;horizontal=1;startSize=30;horizontalStack=0;resizeParent=1;resizeParentMax=0;resizeLast=0;collapsible=1;marginBottom=0;whiteSpace=wrap;html=1;labelBackgroundColor=none;fillColor=#FAE5C7;strokeColor=#0F8B8D;fontColor=#143642;" parent="1" vertex="1">
          <mxGeometry x="290" y="320" width="230" height="90" as="geometry">
            <mxRectangle x="480" y="80" width="60" height="130" as="alternateBounds" />
          </mxGeometry>
        </mxCell>
        <mxCell id="C8l6dgH5X2dVMIeymVqH-90" value="&lt;b&gt;&lt;u&gt;AuthorID&amp;nbsp; FK&lt;/u&gt;&lt;/b&gt;" style="text;strokeColor=none;fillColor=none;align=left;verticalAlign=middle;spacingLeft=4;spacingRight=4;overflow=hidden;points=[[0,0.5],[1,0.5]];portConstraint=eastwest;rotatable=0;whiteSpace=wrap;html=1;labelBackgroundColor=none;fontColor=#143642;" parent="C8l6dgH5X2dVMIeymVqH-89" vertex="1">
          <mxGeometry y="30" width="230" height="30" as="geometry" />
        </mxCell>
        <mxCell id="C8l6dgH5X2dVMIeymVqH-91" value="book_id&amp;nbsp; &amp;nbsp; &amp;nbsp;FK" style="text;strokeColor=none;fillColor=none;align=left;verticalAlign=middle;spacingLeft=4;spacingRight=4;overflow=hidden;points=[[0,0.5],[1,0.5]];portConstraint=eastwest;rotatable=0;whiteSpace=wrap;html=1;labelBackgroundColor=none;fontColor=#143642;" parent="C8l6dgH5X2dVMIeymVqH-89" vertex="1">
          <mxGeometry y="60" width="230" height="30" as="geometry" />
        </mxCell>
        <mxCell id="C8l6dgH5X2dVMIeymVqH-98" value="" style="edgeStyle=entityRelationEdgeStyle;fontSize=12;html=1;endArrow=ERzeroToMany;startArrow=ERmandOne;rounded=0;entryX=-0.009;entryY=0.233;entryDx=0;entryDy=0;entryPerimeter=0;" parent="1" source="C8l6dgH5X2dVMIeymVqH-90" target="C8l6dgH5X2dVMIeymVqH-11" edge="1">
          <mxGeometry width="100" height="100" relative="1" as="geometry">
            <mxPoint x="390" y="320" as="sourcePoint" />
            <mxPoint x="490" y="220" as="targetPoint" />
            <Array as="points">
              <mxPoint x="530" y="370" />
              <mxPoint x="470" y="230" />
            </Array>
          </mxGeometry>
        </mxCell>
        <mxCell id="C8l6dgH5X2dVMIeymVqH-99" value="" style="edgeStyle=entityRelationEdgeStyle;fontSize=12;html=1;endArrow=ERzeroToOne;startArrow=blockThin;rounded=0;entryX=1.009;entryY=-0.117;entryDx=0;entryDy=0;entryPerimeter=0;exitX=-0.007;exitY=0.833;exitDx=0;exitDy=0;exitPerimeter=0;startFill=1;" parent="1" source="C8l6dgH5X2dVMIeymVqH-90" target="C8l6dgH5X2dVMIeymVqH-4" edge="1">
          <mxGeometry width="100" height="100" relative="1" as="geometry">
            <mxPoint x="400" y="310" as="sourcePoint" />
            <mxPoint x="160" y="390" as="targetPoint" />
            <Array as="points">
              <mxPoint x="75.58" y="365.5" />
              <mxPoint x="105.58" y="335.5" />
            </Array>
          </mxGeometry>
        </mxCell>
      </root>
    </mxGraphModel>
  </diagram>
</mxfile>
